<svg width="256" height="256" viewBox="0 0 256 256" xmlns="http://www.w3.org/2000/svg" role="img" aria-labelledby="title desc">
  <title id="title">The Planners Monogram</title>
  <desc id="desc">An ornamental pink frame embracing the TP initials for The Planners.</desc>
  <defs>
    <linearGradient id="tpGradient" x1="0%" y1="0%" x2="100%" y2="100%">
      <stop offset="0%" stop-color="#e945a8"/>
      <stop offset="100%" stop-color="#c02d8c"/>
    </linearGradient>
    <filter id="frameGlow" x="-20%" y="-20%" width="140%" height="140%">
      <feDropShadow dx="0" dy="2" stdDeviation="5" flood-color="#f199d2" flood-opacity="0.55"/>
    </filter>
  </defs>
  <g fill="none" stroke="url(#tpGradient)" stroke-width="6" stroke-linecap="round" stroke-linejoin="round" filter="url(#frameGlow)">
    <path d="M128 22c-22 0-42 18-58 38-12-14-28-22-42-22-16 0-26 10-26 26 0 16 10 28 26 42-20 16-26 32-26 50 0 18 8 32 26 48-16 14-26 28-26 44 0 16 10 26 26 26 16 0 30-10 42-22 16 20 36 38 58 38s42-18 58-38c12 12 26 22 42 22 16 0 26-10 26-26 0-16-10-30-26-44 18-16 26-30 26-48 0-18-6-34-26-50 16-14 26-26 26-42 0-16-10-26-26-26-14 0-30 8-42 22-16-20-36-38-58-38z"/>
    <g>
      <path d="M84 84c-20-22-16-42 10-54"/>
      <path d="M96 108c-26-6-44-24-44-38 0-14 12-24 30-24"/>
      <path d="M84 172c-18 18-42 18-56 0"/>
    </g>
    <g transform="scale(-1,1) translate(-256,0)">
      <path d="M84 84c-20-22-16-42 10-54"/>
      <path d="M96 108c-26-6-44-24-44-38 0-14 12-24 30-24"/>
      <path d="M84 172c-18 18-42 18-56 0"/>
    </g>
    <g transform="scale(1,-1) translate(0,-256)">
      <path d="M84 84c-20-22-16-42 10-54"/>
      <path d="M96 108c-26-6-44-24-44-38 0-14 12-24 30-24"/>
      <path d="M84 172c-18 18-42 18-56 0"/>
    </g>
    <g transform="scale(-1,-1) translate(-256,-256)">
      <path d="M84 84c-20-22-16-42 10-54"/>
      <path d="M96 108c-26-6-44-24-44-38 0-14 12-24 30-24"/>
      <path d="M84 172c-18 18-42 18-56 0"/>
    </g>
    <g>
      <path d="M116 52c8-18 16-26 32-26"/>
      <path d="M116 204c8 18 16 26 32 26"/>
    </g>
    <g transform="scale(-1,1) translate(-256,0)">
      <path d="M116 52c8-18 16-26 32-26"/>
      <path d="M116 204c8 18 16 26 32 26"/>
    </g>
  </g>
  <circle cx="128" cy="128" r="74" fill="url(#tpGradient)" opacity="0.08"/>
  <text x="128" y="142" text-anchor="middle" font-family="'Playfair Display', serif" font-size="88" letter-spacing="2" fill="#cf3ba0">TP</text>
</svg>
