<svg width="256" height="256" viewBox="0 0 256 256" xmlns="http://www.w3.org/2000/svg" role="img" aria-labelledby="title desc">
  <title id="title">The Planners Logo</title>
  <desc id="desc">Stylised TP monogram surrounded by an ornamental frame in pastel rose.</desc>
  <defs>
    <linearGradient id="tpGradient" x1="0%" y1="0%" x2="100%" y2="100%">
      <stop offset="0%" stop-color="#f38dc9"/>
      <stop offset="100%" stop-color="#e365b6"/>
    </linearGradient>
    <filter id="glow" x="-20%" y="-20%" width="140%" height="140%">
      <feDropShadow dx="0" dy="0" stdDeviation="6" flood-color="#f6a9d7" flood-opacity="0.6"/>
    </filter>
  </defs>
  <g fill="none" stroke="url(#tpGradient)" stroke-width="6" filter="url(#glow)">
    <path d="M128 18c-14 0-28 9-40 20-12 11-24 20-38 20-16 0-26 10-26 26 0 14 9 24 20 38 11 12 20 24 20 38s-9 26-20 38c-11 14-20 24-20 38 0 16 10 26 26 26 14 0 26-9 38-20 12-11 23-20 38-20s26 9 38 20c12 11 24 20 38 20 16 0 26-10 26-26 0-14-9-26-20-38-11-12-20-23-20-38s9-26 20-38c11-12 20-24 20-38 0-16-10-26-26-26-14 0-26 9-38 20-12 11-24 20-38 20z" stroke-linecap="round" stroke-linejoin="round"/>
  </g>
  <circle cx="128" cy="128" r="78" fill="url(#tpGradient)" opacity="0.08"/>
  <text x="128" y="136" text-anchor="middle" font-family="'Playfair Display', serif" font-size="86" letter-spacing="2" fill="#d94ca8">TP</text>
</svg>
